<svg id="Layer_1" data-name="Layer 1" xmlns="http://www.w3.org/2000/svg" viewBox="0 0 206.15 236.74"><path fill="#366ceb" d="M.09,161.09c0-22.46,0-44.91,0-67.37A93.73,93.73,0,0,1,80.47,1,90.39,90.39,0,0,1,93.53.12c36.33-.07,72.66,0,109-.12,3,0,3.63.9,3.63,3.74-.09,46.53,0,93.06-.08,139.6a93.37,93.37,0,0,1-79,92,106.92,106.92,0,0,1-16.76,1.35c-35.33,0-70.66-.08-106,.09C.57,236.76,0,235.65,0,232.2.16,208.5.09,184.79.09,161.09Z"/><path d="M70.49,119.31c-.15,1.5-1.18,1.22-2,1.24s-1.59-.1-1.28-1.21A1.65,1.65,0,0,1,69.14,118,1.5,1.5,0,0,1,70.49,119.31Z"/></svg>