<svg id="Layer_1" data-name="Layer 1" xmlns="http://www.w3.org/2000/svg" viewBox="0 0 205.86 236.75"><path fill="#ffff" d="M102.62,236.67c-32.83,0-65.66,0-98.49.08C.85,236.76,0,236,0,232.67c.12-43,0-86.07.1-129.1C.2,53.09,34.91,11.27,84.46,1.75,133.68-7.71,184.28,22,200.33,69.68a105.16,105.16,0,0,1,5.47,33.78q0,64.74.06,129.47c0,3.23-1,3.82-4,3.81Q152.23,236.59,102.62,236.67Z"/><path d="M89.55,119.64c-.06,2.2-.59,4.45-3.31,4.46-2.48,0-3.31-2.17-3.2-4.27s0-4.55,3.25-4.42C89,115.52,89.47,117.38,89.55,119.64Z"/><path d="M123.18,119.16c-.05,1.5-1,1.44-1.86,1.41-.69,0-1.65.11-1.43-1.08A1.66,1.66,0,0,1,121.7,118,1.63,1.63,0,0,1,123.18,119.16Z"/></svg>