<svg id="Layer_1" data-name="Layer 1" xmlns="http://www.w3.org/2000/svg" xmlns:xlink="http://www.w3.org/1999/xlink" viewBox="0 0 1453.53 1557.59"><defs><style>.cls-1{fill:#727270;}.cls-2{fill:#afafaf;}.cls-3{fill:#3d3d3d;}.cls-4{fill:#3d3d3c;}.cls-5{opacity:0.61;fill:url(#linear-gradient);}.cls-6{fill:url(#linear-gradient-2);}.cls-7{fill:#888989;}.cls-8{fill:url(#linear-gradient-3);}.cls-9{fill:url(#linear-gradient-4);}.cls-10{fill:#3a3a3a;}.cls-11{fill:url(#linear-gradient-5);}.cls-12{fill:url(#linear-gradient-6);}.cls-13{fill:url(#linear-gradient-7);}.cls-14{fill:url(#linear-gradient-8);}.cls-15{isolation:isolate;}.cls-16{fill:gray;}.cls-17{fill:#b0b0b0;}.cls-18{fill:#b1b1b1;}.cls-19{fill:#dfdfdf;}</style><linearGradient id="linear-gradient" x1="490.39" y1="666.89" x2="99.48" y2="1343.97" gradientUnits="userSpaceOnUse"><stop offset="0" stop-color="#fff"/><stop offset="0.66" stop-color="#706f6f" stop-opacity="0.5"/></linearGradient><linearGradient id="linear-gradient-2" x1="391.32" y1="1346.24" x2="1453.53" y2="1346.24" gradientUnits="userSpaceOnUse"><stop offset="0.34" stop-color="#7c7b7b"/><stop offset="0.66" stop-color="#706f6f"/><stop offset="1" stop-color="#b2b2b2"/></linearGradient><linearGradient id="linear-gradient-3" x1="393.24" y1="1253.78" x2="1451.61" y2="1253.78" gradientUnits="userSpaceOnUse"><stop offset="0" stop-color="#b2b2b2"/><stop offset="0.66" stop-color="#706f6f" stop-opacity="0.5"/></linearGradient><linearGradient id="linear-gradient-4" x1="479.03" y1="1258.17" x2="1000.5" y2="1258.17" gradientUnits="userSpaceOnUse"><stop offset="0" stop-color="#3c3c3b"/><stop offset="0.66" stop-color="#706f6f" stop-opacity="0"/><stop offset="1" stop-color="#b2b2b2"/></linearGradient><linearGradient id="linear-gradient-5" x1="1121.44" y1="1042.74" x2="1219.1" y2="1246.48" gradientUnits="userSpaceOnUse"><stop offset="0" stop-color="#3c3c3b"/><stop offset="0.88" stop-color="#f6f6f6"/></linearGradient><linearGradient id="linear-gradient-6" x1="1260.3" y1="1010.26" x2="908.74" y2="1361.83" gradientUnits="userSpaceOnUse"><stop offset="0.03" stop-color="#706f6f"/><stop offset="0.31" stop-color="#b2b2b2"/><stop offset="0.63" stop-color="#878787"/></linearGradient><linearGradient id="linear-gradient-7" x1="-6.51" y1="700.31" x2="1898.54" y2="820.11" gradientUnits="userSpaceOnUse"><stop offset="0" stop-color="#dce27f"/><stop offset="0.36" stop-color="#706f6f" stop-opacity="0"/><stop offset="1" stop-color="#706f6f" stop-opacity="0"/></linearGradient><linearGradient id="linear-gradient-8" x1="260.71" y1="1533.04" x2="1251.09" y2="156.62" gradientUnits="userSpaceOnUse"><stop offset="0" stop-color="#4065ad"/><stop offset="0.63" stop-color="#706f6f" stop-opacity="0"/><stop offset="1" stop-color="#706f6f" stop-opacity="0"/></linearGradient></defs><path class="cls-1" d="M39.72,541.9A40.62,40.62,0,0,0,15.07,548a32.59,32.59,0,0,0-12,12.76A34.31,34.31,0,0,0,0,573.24c-1.29,32.07,299.41,950.56,299.41,950.56A65.08,65.08,0,0,0,324,1540.65c31.62,12,61.33-6.58,65.37-9.19"/><path class="cls-2" d="M735.21,1135.31,401.7,1522.38c-26,30.22-75.14,20.26-87.34-17.73L18.91,584.75c-8-25,15.35-49,40.45-41.68l488,142.77a53.39,53.39,0,0,1,34.85,33Z"/><path class="cls-3" d="M739.93,1135.31l-333.5,387.07c-26.05,30.22-75.14,20.26-87.35-17.73L23.63,584.75c-8-25,15.36-49,40.45-41.68l488,142.77a53.36,53.36,0,0,1,34.85,33Z"/><path class="cls-4" d="M701.88,1107.88l-341.24,330.9L75.71,590.86l481.52,130.2a22.29,22.29,0,0,1,15.23,14.2Z"/><path class="cls-5" d="M717.88,1113.68,351.24,1489.32,53.93,597.38a22.72,22.72,0,0,1,27.93-29L559.39,708.06a40.86,40.86,0,0,1,27.14,25.87Z"/><path class="cls-6" d="M391.55,1518.13c-.47,1.48-.57,3.17,3.06,14.17,3.3,10,4.71,12.62,5.36,13.79,2.37,4.22,4,7.1,7.28,9.19,2,1.25,5,2.48,11.87,2.29,8.51-.22,14.54-2.36,29.87-7.66l12.26-4.21c14.62-4.94,25.75-7.86,30.64-9.19,9.77-2.65,17.28-5.06,65.87-20.3,85.53-26.83,171.13-53.42,256.6-80.42,320.19-101.18,303.89-95.46,343.91-108.77,39.45-13.11,88.17-29.59,157.92-50.93,40.76-12.48,114.37-34.47,114.38-34.47h0s7-3.12,10.72-6.13c4.7-3.77,6.2-8.87,8.43-16.85,1.69-6.06,2.54-11.82,3.06-20.68.79-13.44,1.18-20.16,0-26.81-2.67-15.06-12-28.38-18.38-32.94-24.64-17.57-84.7,38.82-142.47,70.47-59.34,32.51-98.19,29-206,41.36-342.81,39.25-531.39,141.07-562.21,178.47-4.93,6-19.45,26.84-46.73,42.13-7.47,4.18-23.07,12-39.83,19.15-12.61,5.39-23.44,14.41-36,19.91C398.63,1510.79,393.11,1513.14,391.55,1518.13Z"/><path class="cls-7" d="M730.42,1135.86,1184.3,980.27a15.84,15.84,0,0,1,13.66,1.62l229,145.66c32.15,20.45,25.76,69.15-10.58,80.62l-1012,319.39c-11.21,3.54-19.89-10-12-18.71Z"/><path class="cls-8" d="M734.29,1135.86l453.88-155.59a15.84,15.84,0,0,1,13.66,1.62l229,145.66c32.15,20.45,25.76,69.15-10.58,80.62l-1012,319.39c-11.21,3.54-19.89-10-12-18.71Z"/><path class="cls-9" d="M982.35,1309.35,489.6,1468.59c-7.38,2.39-13.71-5.87-8.87-11.59L756,1132l244.48-84.66v237.09A26.2,26.2,0,0,1,982.35,1309.35Z"/><path class="cls-10" d="M976,1303.05,501.62,1456.37c-7.11,2.3-13.2-5.65-8.54-11.16l265.05-312.92,235.38-81.52V1279A25.22,25.22,0,0,1,976,1303.05Z"/><path class="cls-11" d="M1324.5,1099.38l-305.11,104.69a3.45,3.45,0,0,1-4.58-3.16l-2.67-92.46a10.75,10.75,0,0,1,7.07-10.41l201.73-73.56a12.85,12.85,0,0,1,11.66,1.46l93.23,63.63A5.53,5.53,0,0,1,1324.5,1099.38Z"/><path class="cls-12" d="M1321.18,1099.7l-298.54,102.43a3.38,3.38,0,0,1-4.48-3.09l-2.61-90.48a10.51,10.51,0,0,1,6.91-10.18l197.39-72a12.58,12.58,0,0,1,11.41,1.43l91.22,62.26A5.42,5.42,0,0,1,1321.18,1099.7Z"/><polygon class="cls-13" points="1255.87 825.7 356.64 1469.01 55.16 580 717.88 0 1255.87 825.7"/><polygon class="cls-14" points="1453.53 1113.98 356.64 1469.01 55.16 580 717.88 0 1453.53 1113.98"/><g class="cls-15"><polygon class="cls-16" points="874.83 901.88 852.04 889.48 818.51 838.19 841.3 850.59 874.83 901.88"/><polygon class="cls-17" points="783.3 836.83 760.5 824.43 791.98 805.62 814.77 818.02 783.3 836.83"/><polygon class="cls-16" points="895.99 871.35 873.2 858.96 770.45 640.56 793.24 652.96 895.99 871.35"/><polygon class="cls-18" points="793.24 652.96 770.45 640.56 791.98 640.9 814.77 653.3 793.24 652.96"/><polygon class="cls-19" points="793.24 652.96 814.77 653.3 907.86 854.22 895.99 871.35 793.24 652.96"/><polygon class="cls-16" points="814.77 818.02 791.98 805.62 731.51 711.95 754.3 724.35 814.77 818.02"/><path class="cls-19" d="M739.57,650.53,890.36,880.15l-15.53,21.73L841.3,850.59l-43.71,38.49,23.61,84-35.46,46.4L703.39,648.79Zm43.73,186.3L814.77,818,754.3,724.35l29,112.48"/><polygon class="cls-17" points="703.39 648.79 680.6 636.39 716.78 638.13 739.57 650.53 703.39 648.79"/><polygon class="cls-16" points="785.74 1019.53 762.95 1007.13 680.6 636.39 703.39 648.79 785.74 1019.53"/></g></svg>